<?xml version="1.0" standalone="no"?>
<!DOCTYPE svg PUBLIC "-//W3C//DTD SVG 20010904//EN"
 "http://www.w3.org/TR/2001/REC-SVG-20010904/DTD/svg10.dtd">
<svg version="1.0" xmlns="http://www.w3.org/2000/svg"
 width="778.000000pt" height="778.000000pt" viewBox="0 0 778.000000 778.000000"
 preserveAspectRatio="xMidYMid meet">
<metadata>
Created by potrace 1.11, written by Peter Selinger 2001-2013
</metadata>
<g transform="translate(0.000000,778.000000) scale(0.100000,-0.100000)"
fill="#000000" stroke="none">
<path d="M3415 5130 c-530 -17 -1040 -62 -1572 -142 -117 -17 -211 -33 -209
-35 2 -3 134 7 293 21 1477 130 2417 123 3318 -25 564 -93 1028 -231 1485
-443 133 -61 174 -85 209 -122 24 -25 41 -47 39 -50 -3 -2 -52 18 -109 45
-988 463 -2581 644 -4229 480 -1019 -101 -1932 -385 -2403 -747 -97 -74 -230
-193 -223 -199 2 -3 37 23 78 57 304 256 793 484 1339 624 541 138 1104 210
1867 238 978 35 1885 -78 2551 -319 163 -58 517 -225 554 -261 32 -30 60 -78
55 -93 -2 -6 -82 30 -178 79 -185 95 -242 116 -336 127 l-59 6 52 -33 c29 -18
105 -62 169 -98 137 -76 260 -183 302 -264 58 -114 22 -258 -95 -374 -66 -66
-127 -102 -275 -165 -550 -235 -1387 -332 -2043 -236 -275 40 -566 114 -685
174 -97 49 -160 126 -160 196 0 84 87 159 186 159 64 0 93 -19 184 -119 107
-118 172 -151 374 -190 257 -50 581 -51 926 -6 259 35 383 65 495 120 164 81
247 179 248 295 1 136 -114 232 -398 330 -650 223 -1618 258 -2505 90 -457
-87 -771 -224 -945 -412 -168 -181 -159 -388 26 -563 192 -181 470 -310 929
-434 662 -177 1776 -248 2595 -165 729 74 1523 275 1935 491 259 135 442 285
512 419 49 93 62 160 56 281 -7 120 -29 183 -99 276 -116 153 -404 351 -700
480 -341 149 -962 309 -1534 396 -414 63 -788 95 -1270 111 -335 11 -388 10
-750 0z"/>
</g>
</svg>
